# xmcd
#
# Track frame offsets: 
#        150
#        5835
#        14976
#        24660
#        33189
#        41060
#        46710
#        54845
#        63148
#        70430
#        76996
#        81544
#        86586
#        92435
#        101422
#        108061
#        111901
#        116802
#        120884
#
# Disc length: 1674 seconds
#
# Revision: 0
# Processed by: cddbd v1.5.2PL0 Copyright (c) Steve Scherf et al.
# Submitted via: ExactAudioCopy v0.99pb5
#
DISCID=ec068813
DTITLE=Various Artist - Folk Music of Hungary
DYEAR=1950
DGENRE=Folk
TTITLE0=Come on Girls, To the Spinning House
TTITLE1=On the Sandy Bank of the Creek
TTITLE2=Beautiful is the Spring
TTITLE3=I Live on the Brink of the Theiss River
TTITLE4=unknown
TTITLE5=unknown
TTITLE6=The Cemetary's Gate
TTITLE7=Clouds are Gathering
TTITLE8=I Pray to God
TTITLE9=Evelasting Love
TTITLE10=They are Playing the Bagpipe
TTITLE11=instrumental
TTITLE12=instrumental
TTITLE13=O Love, O Love
TTITLE14=I am a Prisoner
TTITLE15=Where Have You Been Siskin, This Night
TTITLE16=My Dog, Rajna
TTITLE17=On the Border of Baranya County
TTITLE18=On the Hoof of the Horse of Joe Francis
EXTD=
EXTT0=
EXTT1=
EXTT2=
EXTT3=
EXTT4=
EXTT5=
EXTT6=
EXTT7=
EXTT8=
EXTT9=
EXTT10=
EXTT11=
EXTT12=
EXTT13=
EXTT14=
EXTT15=
EXTT16=
EXTT17=
EXTT18=
PLAYORDER=
